<svg width="38" height="38" viewBox="0 0 38 38" fill="none" xmlns="http://www.w3.org/2000/svg">
<path d="M22.8232 1.5166C24.6457 -0.305544 27.6054 -0.305774 29.4277 1.5166C31.2501 3.33954 31.2501 6.29961 29.4277 8.12207C28.7149 8.83494 27.428 9.61565 25.9961 10.3496L26.0654 10.6328H33.6152C35.954 10.6324 37.8495 12.5288 37.8496 14.8672V33.6152C37.8496 34.7383 37.4035 35.8152 36.6094 36.6094C35.8152 37.4035 34.7383 37.8496 33.6152 37.8496H4.38477C3.26168 37.8496 2.18477 37.4035 1.39062 36.6094C0.596481 35.8152 0.150391 34.7383 0.150391 33.6152V14.8672C0.150467 12.5288 2.04598 10.6324 4.38477 10.6328H11.9346L12.0039 10.3496C10.572 9.61565 9.28513 8.83494 8.57227 8.12207C6.74994 6.29961 6.7499 3.33954 8.57227 1.5166C10.3946 -0.305774 13.3543 -0.305543 15.1768 1.5166C15.7902 2.12979 16.4551 3.16864 17.0977 4.3623C17.7384 5.55266 18.3511 6.88509 18.8623 8.07422L19 8.39453L19.1377 8.07422C19.6489 6.88509 20.2616 5.55266 20.9023 4.3623C21.5449 3.16864 22.2098 2.12979 22.8232 1.5166ZM2.77344 33.6152C2.77344 34.0426 2.9429 34.4527 3.24512 34.7549C3.54734 35.0571 3.95736 35.2266 4.38477 35.2266H33.6152C34.0426 35.2266 34.4527 35.0571 34.7549 34.7549C35.0571 34.4527 35.2266 34.0426 35.2266 33.6152V29.1338H2.77344V33.6152ZM4.38477 13.2559C3.95745 13.2559 3.54732 13.4264 3.24512 13.7285C2.94312 14.0306 2.7736 14.44 2.77344 14.8672V26.5107H35.2266V14.8672C35.2264 14.44 35.0569 14.0306 34.7549 13.7285C34.4527 13.4264 34.0426 13.2559 33.6152 13.2559H22.166L22.4219 13.5127L25.9561 17.0449C26.2019 17.2909 26.3398 17.6249 26.3398 17.9727C26.3398 18.3204 26.2019 18.6544 25.9561 18.9004C25.71 19.1461 25.3761 19.2842 25.0283 19.2842C24.6806 19.2842 24.3467 19.1461 24.1006 18.9004L19.1064 13.9053L19 13.7988L18.8936 13.9053L13.8994 18.9004C13.6533 19.1461 13.3194 19.2842 12.9717 19.2842C12.6239 19.2842 12.29 19.1461 12.0439 18.9004C11.7981 18.6544 11.6602 18.3204 11.6602 17.9727C11.6602 17.6249 11.7981 17.2909 12.0439 17.0449L15.5781 13.5127L15.834 13.2559H4.38477ZM13.3223 3.37207C12.5234 2.57328 11.2266 2.57332 10.4277 3.37207C9.62878 4.17103 9.62886 5.4682 10.4277 6.26758C11.0076 6.84706 11.9749 7.4485 13.0527 8.01172C14.1345 8.57698 15.3412 9.11123 16.4111 9.55176L16.7441 9.68848L16.6074 9.35547C16.1667 8.28581 15.6326 7.07882 15.0674 5.99707C14.5041 4.91902 13.9021 3.95169 13.3223 3.37207ZM27.5723 3.37207C26.7734 2.57332 25.4766 2.57328 24.6777 3.37207C24.0979 3.95169 23.4959 4.91902 22.9326 5.99707C22.3674 7.07882 21.8333 8.28581 21.3926 9.35547L21.2559 9.68848L21.5889 9.55176C22.6588 9.11123 23.8655 8.57698 24.9473 8.01172C26.0251 7.4485 26.9924 6.84706 27.5723 6.26758C28.3711 5.4682 28.3712 4.17103 27.5723 3.37207Z" fill="#C21D0B" stroke="white" stroke-width="0.3"/>
</svg>
